<svg xmlns="http://www.w3.org/2000/svg" width="140" height="142" viewBox="0 0 140 142" fill="none">
  <mask id="mask0_47157_59" style="mask-type:alpha" maskUnits="userSpaceOnUse" x="0" y="0" width="140" height="142">
    <rect width="140" height="142" fill="#D9D9D9"/>
  </mask>
  <g mask="url(#mask0_47157_59)">
    <path fill-rule="evenodd" clip-rule="evenodd" d="M134.843 51.4097C130.481 37.6314 121.748 25.65 109.966 17.2806C98.1835 8.91119 83.9947 4.60973 69.5485 5.02784C55.1023 5.44595 41.1858 10.5608 29.9074 19.5977C18.629 28.6345 10.6032 41.101 7.04551 55.1085C3.48786 69.116 4.59233 83.9014 10.1916 97.2249C15.7909 110.548 25.58 121.684 38.0758 128.945C50.5717 136.206 65.0936 139.196 79.4415 137.463C93.7895 135.731 107.182 129.369 117.59 119.342H117.618L118.159 118.801C120.77 116.179 122.234 112.628 122.229 108.928C122.225 105.228 120.754 101.68 118.137 99.0639C115.521 96.4475 111.973 94.9759 108.273 94.9717C104.573 94.9676 101.022 96.4313 98.4002 99.0419V99.0324C93.0519 104.267 86.2935 107.829 78.9523 109.282C71.6111 110.735 64.0056 110.016 57.0664 107.214C50.1272 104.412 44.1555 99.6474 39.882 93.5039C35.6086 87.3603 33.2188 80.1043 33.0052 72.6237C32.7916 65.1431 34.7635 57.7625 38.6794 51.3852C42.5953 45.0078 48.2856 39.9104 55.0535 36.7168C61.8215 33.5231 69.3736 32.3718 76.7858 33.4037C84.198 34.4356 91.1486 37.6059 96.7869 42.5267L98.6565 44.4058C99.5303 45.2913 100.018 46.4864 100.014 47.7304C100.01 48.9744 99.514 50.1663 98.6344 51.0459C97.7547 51.9255 96.5629 52.4216 95.3189 52.4257C94.0749 52.4299 92.8797 51.9418 91.9943 51.0681L89.4034 48.4677L89.3085 48.5626C89.2673 48.4469 89.1989 48.3427 89.1091 48.2589C84.71 44.9276 79.4564 42.9121 73.9579 42.4464C68.4594 41.9808 62.9417 43.084 58.045 45.6281C53.1483 48.1722 49.0735 52.0528 46.2935 56.8195C43.5135 61.5863 42.1424 67.0437 42.3392 72.5583C42.536 78.073 44.2928 83.4187 47.4055 87.9751C50.5183 92.5315 54.8593 96.1118 59.9249 98.3003C64.9905 100.489 70.5729 101.196 76.0242 100.339C81.4755 99.4829 86.5722 97.098 90.7226 93.4615C91.504 92.5885 91.9328 91.4561 91.9258 90.2844C91.9188 89.1128 91.4764 87.9856 90.6846 87.122C88.815 85.1005 85.6167 85.632 84.0318 86.9322C81.1422 89.2823 77.6497 90.7721 73.9535 91.2315C70.2573 91.6908 66.5064 91.1012 63.1294 89.5299C59.7524 87.9586 56.8855 85.4691 54.8562 82.3457C52.827 79.2224 51.7173 75.5912 51.6539 71.8671C51.5906 68.143 52.5761 64.4761 54.4978 61.2855C56.4196 58.0949 59.2001 55.5092 62.5216 53.8239C65.8432 52.1386 69.5719 51.4217 73.2816 51.755C76.9913 52.0883 80.5325 53.4584 83.5004 55.7088L83.5288 55.6899L85.2086 57.3697C87.8308 59.9802 91.3815 61.4439 95.0816 61.4398C98.7817 61.4357 102.329 59.964 104.945 57.3476C107.562 54.7312 109.034 51.1838 109.038 47.4837C109.042 43.7836 107.578 40.2329 104.968 37.6107L104.759 37.4019C104.727 37.2526 104.654 37.1148 104.55 37.0033C97.7517 30.4979 89.1848 26.1435 79.9225 24.4857C70.6603 22.828 61.1148 23.9407 52.4821 27.6844C43.8495 31.428 36.5137 37.6362 31.394 45.5309C26.2743 53.4255 23.5985 62.6556 23.7017 72.0645C23.805 81.4733 26.6826 90.6425 31.9743 98.4229C37.2659 106.203 44.7362 112.249 53.4489 115.802C62.1616 119.356 71.7291 120.259 80.9528 118.398C90.1764 116.538 98.6459 111.996 105.3 105.343C105.314 105.311 105.329 105.279 105.347 105.249C106.204 104.447 107.33 103.996 108.502 103.983C109.675 103.97 110.811 104.396 111.685 105.177C112.56 105.959 113.11 107.04 113.228 108.207C113.346 109.374 113.023 110.543 112.323 111.484C103.656 120.336 92.3459 126.129 80.0983 127.99C67.8506 129.85 55.3302 127.676 44.4261 121.797C33.5221 115.918 24.826 106.651 19.6501 95.3962C14.4743 84.1411 13.0994 71.508 15.733 59.403C18.3667 47.298 24.8658 36.378 34.2499 28.2907C43.634 20.2033 55.3939 15.3875 67.755 14.5697C80.1161 13.752 92.4079 16.9768 102.776 23.7575C113.143 30.5382 121.024 40.5069 125.23 52.1594C125.922 54.086 127.545 56.8951 130.857 56.6863C131.498 56.6856 132.13 56.5365 132.703 56.2507C133.276 55.9648 133.776 55.55 134.162 55.0388C134.548 54.5276 134.811 53.9339 134.929 53.3043C135.047 52.6746 135.018 52.0261 134.843 51.4097Z" stroke="white" stroke-width="1.9999" stroke-miterlimit="10" stroke-linecap="round" stroke-linejoin="round"/>
  </g>
</svg>