<svg xmlns="http://www.w3.org/2000/svg" width="140" height="142" viewBox="0 0 140 142" fill="none">
  <mask id="mask0_47157_55" style="mask-type:alpha" maskUnits="userSpaceOnUse" x="0" y="0" width="140" height="142">
    <rect width="140" height="142" fill="#D9D9D9"/>
  </mask>
  <g mask="url(#mask0_47157_55)">
    <path d="M0.00985549 99.1805C0.0197845 99.2319 0.0354419 99.282 0.0565344 99.3299C0.0658702 99.3579 0.075206 99.3952 0.0845418 99.4232L10.7367 117.871L10.7647 117.899C10.7834 117.927 10.802 117.955 10.83 117.992C10.8661 118.031 10.9068 118.066 10.9514 118.095C10.9794 118.113 10.9981 118.141 11.0261 118.16C11.037 118.168 11.0503 118.171 11.0634 118.17C11.1691 118.229 11.2878 118.261 11.4089 118.263H53.5506L63.9787 136.318L64.0067 136.346C64.0254 136.374 64.044 136.402 64.072 136.44C64.1081 136.479 64.1489 136.513 64.1934 136.542C64.2214 136.561 64.2401 136.589 64.2681 136.608C64.279 136.615 64.2923 136.618 64.3054 136.617C64.4111 136.676 64.5298 136.708 64.6509 136.71H128.554C128.678 136.708 128.8 136.676 128.909 136.617L128.993 136.561C129.072 136.508 129.142 136.442 129.198 136.365C129.208 136.346 129.236 136.337 129.245 136.318L139.897 117.871C139.907 117.852 139.907 117.843 139.916 117.824C139.932 117.795 139.945 117.763 139.953 117.731C139.963 117.693 139.972 117.665 139.981 117.628C139.989 117.594 139.992 117.56 139.991 117.525C139.991 117.507 140 117.497 140 117.479C140 117.46 139.991 117.451 139.991 117.432C139.991 117.395 139.981 117.367 139.981 117.329C139.981 117.292 139.963 117.264 139.953 117.227C139.943 117.195 139.93 117.164 139.916 117.133C139.907 117.115 139.907 117.105 139.897 117.087L118.826 80.5929L129.245 62.5375C129.255 62.5189 129.255 62.5095 129.264 62.4909C129.28 62.4615 129.293 62.4301 129.301 62.3975C129.311 62.3602 129.32 62.3321 129.329 62.2948C129.337 62.2612 129.34 62.2266 129.339 62.1921C129.339 62.1734 129.348 62.1641 129.348 62.1454C129.348 62.1268 129.339 62.1174 129.339 62.0988C129.339 62.0614 129.329 62.0334 129.329 61.9961C129.329 61.9587 129.311 61.9307 129.301 61.8934C129.29 61.8616 129.278 61.8305 129.264 61.8C129.255 61.7813 129.255 61.772 129.245 61.7533L97.3074 6.40144C97.2888 6.37343 97.2608 6.35476 97.2421 6.32675C97.2102 6.28439 97.1759 6.24387 97.1394 6.20539C97.1012 6.17426 97.0606 6.14617 97.018 6.12137C96.9774 6.09407 96.9335 6.0721 96.8873 6.05601C96.8327 6.03815 96.7764 6.02565 96.7193 6.01867C96.6913 6.01867 96.6633 6 96.6259 6H75.3217C75.303 6 75.2936 6.00934 75.275 6.00934C75.2376 6.00934 75.2096 6.01867 75.1723 6.01867L75.0603 6.04668C75.0323 6.05601 74.9949 6.07469 74.9669 6.08402C74.9389 6.09336 74.9389 6.09336 74.9202 6.10269C74.9096 6.11423 74.8969 6.12372 74.8829 6.1307C74.8527 6.14951 74.8245 6.17142 74.7989 6.19605C74.7717 6.21854 74.7467 6.24355 74.7242 6.27074C74.7055 6.29875 74.6775 6.32675 74.6588 6.35476C74.6473 6.3654 74.6378 6.37805 74.6308 6.3921L53.5599 42.895H32.7225C32.7038 42.895 32.6945 42.9044 32.6758 42.9044C32.6384 42.9044 32.6104 42.9137 32.5731 42.9137C32.5357 42.9137 32.4984 42.9324 32.4704 42.9417C32.4386 42.9525 32.4075 42.965 32.377 42.9791C32.3584 42.9884 32.349 42.9884 32.3304 42.9977C32.3117 43.0071 32.3117 43.0164 32.293 43.0257C32.2628 43.0446 32.2347 43.0665 32.209 43.0911C32.1818 43.1136 32.1568 43.1386 32.1343 43.1658C32.1156 43.1938 32.0876 43.2218 32.069 43.2498C32.0574 43.2604 32.0479 43.2731 32.0409 43.2871L0.0938776 98.639C0.0803021 98.6687 0.0708779 98.7001 0.0658702 98.7324C0.0460858 98.7808 0.0304694 98.8307 0.0191913 98.8818C0.0043722 98.9301 -0.00194541 98.9806 0.000519707 99.0311C-0.00102602 99.0811 0.00209948 99.1311 0.00985549 99.1805ZM96.1685 7.58708L127.21 61.3519H107.736L76.6847 7.58708H96.1685ZM106.821 98.2469H87.3368L107.726 62.9203H127.21L106.821 98.2469ZM75.3217 8.37129L106.363 62.1361L85.9738 97.4627L76.2366 80.5836L86.6646 62.5282C86.674 62.5095 86.674 62.5002 86.6833 62.4815C86.6997 62.4521 86.7123 62.4208 86.7207 62.3882C86.73 62.3508 86.7393 62.3228 86.7487 62.2855C86.7564 62.2518 86.7595 62.2173 86.758 62.1828C86.758 62.1641 86.7673 62.1548 86.7673 62.1361C86.7673 62.1174 86.758 62.1081 86.758 62.0894C86.758 62.0521 86.7487 62.0241 86.7487 61.9867C86.7487 61.9494 86.73 61.9214 86.7207 61.884C86.7098 61.8523 86.6974 61.8211 86.6833 61.7907C86.674 61.772 86.674 61.7627 86.6646 61.744L76.0032 43.2965C75.9845 43.2685 75.9565 43.2498 75.9378 43.2218C75.9059 43.1794 75.8716 43.1389 75.8351 43.1004C75.7969 43.0693 75.7563 43.0412 75.7138 43.0164C75.6721 42.9909 75.6284 42.9691 75.5831 42.951C75.5321 42.9327 75.4785 42.9233 75.4244 42.923C75.3963 42.923 75.359 42.9044 75.331 42.9044H55.3898L75.3217 8.37129ZM54.0267 44.4821H74.8735L84.6201 61.3519H43.832L34.0855 44.4821H54.0267ZM32.7225 45.2663L42.4597 62.1361L11.4182 115.901L1.68096 99.0311L32.7225 45.2663ZM12.7906 116.685L43.832 62.9203H84.6201L74.8735 79.7994H54.0267C54.0081 79.7994 53.9987 79.8087 53.98 79.8087C53.9427 79.8087 53.9147 79.8181 53.8774 79.8181L53.7653 79.8461C53.7373 79.8554 53.7 79.8741 53.672 79.8834C53.644 79.8928 53.644 79.8928 53.6253 79.9021C53.6147 79.9136 53.602 79.9231 53.5879 79.9301C53.5577 79.9489 53.5296 79.9708 53.5039 79.9955C53.4767 80.018 53.4517 80.043 53.4292 80.0702C53.4106 80.0982 53.3826 80.1262 53.3639 80.1542C53.3545 80.1635 53.3359 80.1728 53.3359 80.1915L42.6837 98.639C42.6702 98.6687 42.6607 98.7001 42.6557 98.7324C42.636 98.7808 42.6203 98.8307 42.6091 98.8818C42.601 98.9311 42.5979 98.9812 42.5997 99.0311C42.5982 99.0811 42.6013 99.1311 42.6091 99.1805C42.619 99.2319 42.6346 99.282 42.6557 99.3299C42.6651 99.3579 42.6744 99.3952 42.6837 99.4232L52.6544 116.685H12.7906ZM128.125 135.133H66.0419L75.7791 118.263H137.862L128.125 135.133ZM64.6789 134.348L44.2895 99.0311L54.0361 82.152L74.4254 117.469L64.6789 134.348ZM137.862 116.685H75.7791L55.3898 81.3678H74.8735L85.3016 99.4232L85.3296 99.4512C85.3482 99.4845 85.3701 99.5158 85.395 99.5446C85.431 99.5837 85.4718 99.6182 85.5163 99.6473C85.5443 99.666 85.563 99.694 85.591 99.7126C85.602 99.7201 85.6152 99.7234 85.6284 99.722C85.7341 99.7811 85.8527 99.8132 85.9738 99.8153H107.278C107.402 99.8132 107.524 99.7812 107.633 99.722L107.717 99.666C107.796 99.613 107.866 99.5467 107.922 99.4699C107.932 99.4512 107.96 99.4419 107.969 99.4232L117.94 82.152L137.862 116.685Z" fill="white"/>
  </g>
</svg>