<svg xmlns="http://www.w3.org/2000/svg" width="140" height="142" viewBox="0 0 140 142" fill="none">
  <mask id="mask0_47157_56" style="mask-type:alpha" maskUnits="userSpaceOnUse" x="0" y="0" width="140" height="142">
    <rect width="140" height="142" fill="#D9D9D9"/>
  </mask>
  <g mask="url(#mask0_47157_56)">
    <path d="M0.0204295 118.212C0.0325709 118.264 0.0492913 118.314 0.0704135 118.362C0.0758568 118.394 0.0859673 118.424 0.10041 118.452L7.37987 131.073L7.40986 131.103C7.43001 131.135 7.45347 131.165 7.47987 131.193C7.51986 131.233 7.55985 131.263 7.59985 131.303C7.62985 131.323 7.63986 131.353 7.66985 131.363C7.68159 131.371 7.69573 131.374 7.70983 131.373C7.8184 131.428 7.93793 131.459 8.05981 131.463H131.921C132.042 131.459 132.162 131.428 132.271 131.373C132.301 131.353 132.321 131.333 132.351 131.313C132.431 131.262 132.5 131.193 132.551 131.113C132.561 131.093 132.581 131.083 132.601 131.063L139.89 118.442C139.9 118.432 139.9 118.412 139.91 118.402C139.929 118.372 139.943 118.338 139.95 118.302C139.96 118.272 139.97 118.232 139.98 118.202C139.988 118.17 139.992 118.136 139.99 118.102C139.99 118.082 140 118.072 140 118.052C140 118.032 139.99 118.022 139.99 118.002C139.99 117.982 139.98 117.932 139.98 117.902C139.98 117.872 139.96 117.832 139.95 117.802C139.939 117.768 139.926 117.735 139.91 117.702C139.9 117.692 139.9 117.672 139.89 117.662L77.9646 10.39C77.9471 10.3646 77.927 10.3411 77.9046 10.32C77.8733 10.2754 77.8363 10.2351 77.7946 10.2C77.7162 10.1423 77.6325 10.092 77.5447 10.05C77.4926 10.0343 77.4389 10.0242 77.3847 10.02C77.3547 10.02 77.3247 10 77.2847 10H62.7157C62.6957 10 62.6858 10.01 62.6658 10.01C62.6458 10.01 62.5958 10.02 62.5658 10.02L62.4558 10.05C62.4214 10.0607 62.388 10.0741 62.3558 10.09C62.3441 10.098 62.3299 10.1015 62.3158 10.1C62.3044 10.1124 62.2908 10.1225 62.2758 10.13C62.2474 10.1475 62.2206 10.1676 62.1958 10.19C62.1667 10.2141 62.1399 10.2409 62.1158 10.27C62.0958 10.3 62.0758 10.32 62.0558 10.35C62.0434 10.3614 62.0333 10.375 62.0258 10.39L0.0904011 117.672C0.0759583 117.701 0.0658478 117.731 0.0604045 117.762C0.0392672 117.811 0.0225463 117.861 0.0104205 117.912C0.00211234 117.962 -0.00124706 118.012 0.000411433 118.062C0.0104107 118.112 0.0104302 118.162 0.0204295 118.212ZM76.8347 11.57L137.86 117.272H31.2881L37.6676 106.232H117.372C117.495 106.231 117.616 106.196 117.722 106.132C117.732 106.122 117.752 106.132 117.762 106.122C117.787 106.105 117.81 106.084 117.832 106.062C117.874 106.028 117.914 105.991 117.952 105.952C117.982 105.914 118.008 105.874 118.032 105.832C118.062 105.794 118.082 105.749 118.092 105.702C118.112 105.651 118.122 105.597 118.122 105.542C118.122 105.512 118.142 105.482 118.142 105.442C118.142 105.422 118.132 105.412 118.132 105.392C118.126 105.341 118.116 105.291 118.102 105.242C118.089 105.191 118.073 105.14 118.052 105.092C118.042 105.082 118.042 105.062 118.032 105.052L64.0657 11.57H76.8347ZM131.481 129.893H9.4297L62.7157 37.5906L69.0953 48.6308L29.2382 117.662C29.2303 117.674 29.2268 117.688 29.2282 117.702C29.2071 117.751 29.1904 117.801 29.1782 117.852C29.1635 117.901 29.1534 117.951 29.1482 118.002C29.1482 118.022 29.1383 118.032 29.1383 118.052C29.1383 118.072 29.1582 118.112 29.1582 118.152C29.1634 118.206 29.1734 118.26 29.1882 118.312C29.2082 118.362 29.2282 118.402 29.2482 118.442C29.2726 118.484 29.2993 118.524 29.3282 118.562C29.3682 118.602 29.4082 118.632 29.4482 118.672C29.4782 118.692 29.4882 118.722 29.5182 118.732C29.5282 118.742 29.5482 118.732 29.5582 118.742C29.6661 118.801 29.7856 118.835 29.9082 118.842H137.84L131.481 129.893ZM101.433 104.662H38.5675L70.0052 50.2108L101.433 104.662ZM62.7157 12.36L116.002 104.662H103.253L63.4057 35.6305C63.3933 35.6191 63.3832 35.6056 63.3757 35.5905C63.3457 35.5505 63.3057 35.5105 63.2757 35.4705C63.2404 35.432 63.2 35.3983 63.1557 35.3705C63.1443 35.3582 63.1308 35.348 63.1157 35.3405C63.0874 35.3261 63.057 35.316 63.0257 35.3105C62.9773 35.2894 62.9271 35.2727 62.8757 35.2605C62.7762 35.2472 62.6753 35.2472 62.5758 35.2605C62.5244 35.2727 62.4742 35.2894 62.4258 35.3105C62.3944 35.316 62.3641 35.3261 62.3358 35.3405C62.3244 35.3529 62.3108 35.3631 62.2958 35.3705C62.2558 35.4005 62.2158 35.4405 62.1758 35.4705C62.1345 35.5031 62.1004 35.544 62.0758 35.5905C62.0635 35.6019 62.0533 35.6155 62.0458 35.6305L8.07983 129.113L1.7003 118.072L62.7157 12.36Z" fill="white"/>
  </g>
</svg>