<svg xmlns="http://www.w3.org/2000/svg" width="140" height="142" viewBox="0 0 140 142" fill="none">
  <mask id="mask0_47157_58" style="mask-type:alpha" maskUnits="userSpaceOnUse" x="0" y="0" width="140" height="142">
    <rect width="140" height="142" fill="#D9D9D9"/>
  </mask>
  <g mask="url(#mask0_47157_58)">
    <path d="M111.359 13L87.0486 26.9286L87.0949 63.1893L53.2579 26.455L28.4557 13.0093L5 26.2693V101.679L28.7064 114.911L53.035 101.446V95.2621L86.0735 129.898L135 101.651V26.2693L111.359 13ZM89.3235 29.5286L112.231 42.6678V90.4707L89.3607 65.65L89.3235 29.5286ZM7.27501 28.8786L28.0378 40.8664L85.2657 102.356L85.2843 125.756L27.6479 65.325V111.707L7.27501 100.351V28.8786ZM50.76 93.08V100.119L29.8114 111.707V70.9521L50.89 93.08H50.76ZM132.836 100.36L87.5406 126.499L87.5222 101.474L29.4586 39.0928L8.41713 26.9471L28.4928 15.5907L51.8742 28.2657L114.506 96.2464V41.3586L90.4657 27.5786L111.424 15.5814L132.836 27.5786V100.36Z" fill="white"/>
  </g>
</svg>